<svg width="26" height="26" viewBox="0 0 26 26" fill="none" xmlns="http://www.w3.org/2000/svg">
<g id="Icon - Github">
<path id="Icon" fill-rule="evenodd" clip-rule="evenodd" d="M13.0003 0.8125C6.1171 0.8125 0.541992 6.3876 0.541992 13.2708C0.541992 18.7836 4.10819 23.4399 9.06038 25.0907C9.68329 25.1997 9.91689 24.8259 9.91689 24.4989C9.91689 24.203 9.90132 23.2219 9.90132 22.1785C6.77116 22.7547 5.96137 21.4155 5.7122 20.7147C5.57204 20.3565 4.9647 19.2508 4.43522 18.9549C3.99918 18.7214 3.37626 18.1452 4.41965 18.1296C5.40074 18.114 6.10152 19.0328 6.33512 19.4066C7.45637 21.2909 9.24725 20.7614 9.96361 20.4344C10.0726 19.6246 10.3996 19.0795 10.7578 18.7681C7.98585 18.4566 5.08928 17.3821 5.08928 12.6168C5.08928 11.2619 5.57204 10.1407 6.36626 9.26859C6.24168 8.95713 5.80564 7.68016 6.49085 5.96713C6.49085 5.96713 7.53423 5.6401 9.91689 7.24411C10.9136 6.9638 11.9725 6.82365 13.0315 6.82365C14.0904 6.82365 15.1494 6.9638 16.1461 7.24411C18.5287 5.62453 19.5721 5.96713 19.5721 5.96713C20.2573 7.68016 19.8213 8.95713 19.6967 9.26859C20.4909 10.1407 20.9737 11.2464 20.9737 12.6168C20.9737 17.3977 18.0615 18.4566 15.2895 18.7681C15.7412 19.1574 16.1305 19.9049 16.1305 21.0729C16.1305 22.7392 16.1149 24.0784 16.1149 24.4989C16.1149 24.8259 16.3485 25.2153 16.9714 25.0907C21.8925 23.4399 25.4587 18.7681 25.4587 13.2708C25.4587 6.3876 19.8836 0.8125 13.0003 0.8125Z" fill="#171717"/>
</g>
</svg>
