<svg width="20" height="26" viewBox="0 0 20 26" fill="none" xmlns="http://www.w3.org/2000/svg">
<g id="Group">
<circle id="Vector" cx="9.5" cy="5.5" r="5" fill="white"/>
<path id="Vector_2" fill-rule="evenodd" clip-rule="evenodd" d="M15.125 25.5C13.0626 25.5 12.0314 25.5 11.3907 24.8593C10.75 24.2186 10.75 23.1874 10.75 21.125C10.75 19.0626 10.75 18.0314 11.3907 17.3907C12.0314 16.75 13.0626 16.75 15.125 16.75C17.1874 16.75 18.2186 16.75 18.8593 17.3907C19.5 18.0314 19.5 19.0626 19.5 21.125C19.5 23.1874 19.5 24.2186 18.8593 24.8593C18.2186 25.5 17.1874 25.5 15.125 25.5ZM17.585 20.1823C17.8698 19.8975 17.8698 19.4358 17.585 19.1511C17.3003 18.8663 16.8386 18.8663 16.5538 19.1511L14.1528 21.5521L13.6962 21.0955C13.4114 20.8108 12.9497 20.8108 12.665 21.0955C12.3802 21.3803 12.3802 21.842 12.665 22.1267L13.6372 23.0989C13.9219 23.3837 14.3836 23.3837 14.6684 23.0989L17.585 20.1823Z" fill="white"/>
<path id="Subtract" d="M13.7684 14.8842C12.5058 14.4803 11.05 14.25 9.5 14.25C4.66751 14.25 0.75 16.4886 0.75 19.25C0.75 21.9257 4.42805 24.1105 9.05267 24.2436C9.01872 24.0857 8.99252 23.929 8.97183 23.7751C8.87474 23.053 8.87487 22.1706 8.87501 21.2324V21.0175C8.87487 20.0793 8.87474 19.197 8.97183 18.4749C9.07987 17.6713 9.33811 16.7917 10.0649 16.0649C10.7917 15.3381 11.6713 15.0798 12.4749 14.9718C12.8648 14.9194 13.3015 14.8953 13.7684 14.8842Z" fill="white"/>
</g>
</svg>
