<svg width="28" height="28" viewBox="0 0 28 28" fill="none" xmlns="http://www.w3.org/2000/svg">
<g id="Icon - Ticket Star">
<path id="Vector (Stroke)" fill-rule="evenodd" clip-rule="evenodd" d="M11.5968 3.79102H16.4036C18.5518 3.791 20.253 3.79098 21.5843 3.96964C22.9542 4.15348 24.0628 4.54076 24.9372 5.41356C26.2371 6.71106 26.4772 8.54813 26.5414 11.0538C26.5634 11.9128 25.8838 12.44 25.3157 12.5886C24.6869 12.753 24.2258 13.3244 24.2258 13.9994C24.2258 14.6744 24.6869 15.2457 25.3157 15.4101C25.8838 15.5587 26.5634 16.0859 26.5414 16.9449C26.4772 19.4506 26.2371 21.2876 24.9372 22.5851C24.0628 23.4579 22.9542 23.8452 21.5843 24.0291C20.253 24.2077 18.5518 24.2077 16.4036 24.2077H11.5968C9.44863 24.2077 7.74744 24.2077 6.41611 24.0291C5.04623 23.8452 3.9376 23.4579 3.06318 22.5851C1.76328 21.2876 1.52319 19.4506 1.45902 16.9449C1.43702 16.0859 2.11661 15.5587 2.68471 15.4101C3.31349 15.2457 3.77461 14.6744 3.77461 13.9994C3.77461 13.3244 3.31349 12.753 2.68471 12.5886C2.11661 12.44 1.43702 11.9128 1.45902 11.0538C1.52319 8.54813 1.76328 6.71106 3.06318 5.41356C3.9376 4.54076 5.04623 4.15348 6.41611 3.96964C7.74744 3.79098 9.44863 3.791 11.5968 3.79102ZM6.64887 5.7041C5.47245 5.86197 4.79442 6.15811 4.29948 6.65214C3.56701 7.38325 3.28719 8.48996 3.21345 10.9193C4.54751 11.3083 5.52461 12.5381 5.52461 13.9994C5.52461 15.4606 4.54751 16.6904 3.21345 17.0794C3.28719 19.5087 3.56701 20.6154 4.29948 21.3466C4.79442 21.8406 5.47245 22.1367 6.64887 22.2946C7.85029 22.4558 9.43391 22.4577 11.6626 22.4577H16.3379C18.5665 22.4577 20.1501 22.4558 21.3515 22.2946C22.528 22.1367 23.206 21.8406 23.7009 21.3466C24.4334 20.6154 24.7132 19.5087 24.787 17.0794C23.4529 16.6904 22.4758 15.4606 22.4758 13.9994C22.4758 12.5381 23.4529 11.3083 24.787 10.9193C24.7132 8.48996 24.4334 7.38325 23.7009 6.65214C23.206 6.15811 22.528 5.86197 21.3515 5.7041C20.1501 5.54287 18.5665 5.54102 16.3379 5.54102H11.6626C9.43391 5.54102 7.85029 5.54287 6.64887 5.7041ZM14.0002 11.7063C13.9324 11.8237 13.857 11.9589 13.7681 12.1183L13.6534 12.3241C13.6453 12.3386 13.6366 12.3545 13.6273 12.3715C13.5357 12.539 13.384 12.8165 13.131 13.0085C12.8727 13.2046 12.5621 13.272 12.3804 13.3115C12.3622 13.3154 12.3453 13.3191 12.3299 13.3226L12.1071 13.373C11.9028 13.4192 11.7363 13.457 11.594 13.4927C11.6865 13.6067 11.8068 13.7482 11.9632 13.9311L12.1151 14.1087C12.1259 14.1213 12.1376 14.1348 12.15 14.1492C12.276 14.2942 12.4793 14.5284 12.5733 14.8307C12.6662 15.1295 12.6342 15.4372 12.6139 15.6313C12.6119 15.6507 12.61 15.6689 12.6084 15.6859L12.5854 15.9228C12.5641 16.1424 12.5476 16.3177 12.5366 16.4603C12.6581 16.4067 12.7964 16.3431 12.9607 16.2675L13.1693 16.1714C13.1836 16.1648 13.1994 16.1574 13.2164 16.1494C13.3838 16.0704 13.6751 15.933 14.0002 15.933C14.3253 15.933 14.6166 16.0704 14.784 16.1494C14.8011 16.1574 14.8168 16.1648 14.8311 16.1714L15.0397 16.2675C15.204 16.3431 15.3423 16.4067 15.4638 16.4603C15.4528 16.3177 15.4363 16.1424 15.415 15.9228L15.392 15.6859C15.3904 15.6689 15.3885 15.6507 15.3865 15.6313C15.3663 15.4372 15.3342 15.1295 15.4271 14.8307C15.5211 14.5284 15.7245 14.2942 15.8504 14.1492C15.8628 14.1348 15.8746 14.1213 15.8853 14.1087L16.0372 13.9311C16.1936 13.7482 16.3139 13.6067 16.4065 13.4927C16.2641 13.457 16.0976 13.4192 15.8933 13.373L15.6706 13.3226C15.6551 13.3191 15.6382 13.3154 15.62 13.3115C15.4384 13.272 15.1277 13.2046 14.8694 13.0085C14.6164 12.8165 14.4647 12.539 14.3731 12.3715C14.3638 12.3545 14.3551 12.3386 14.347 12.3241L14.2323 12.1183C14.1435 11.9589 14.068 11.8237 14.0002 11.7063ZM12.8493 10.2656C13.0501 10.0033 13.4149 9.62435 14.0002 9.62435C14.5855 9.62435 14.9503 10.0033 15.1511 10.2656C15.3428 10.5159 15.5359 10.8625 15.7339 11.2177C15.7428 11.2339 15.7519 11.2501 15.7609 11.2662L15.8756 11.472C15.9022 11.5197 15.9231 11.5573 15.9414 11.5894C15.9733 11.5968 16.0104 11.6053 16.0567 11.6157L16.2795 11.6661C16.2977 11.6703 16.3159 11.6744 16.3342 11.6785C16.7166 11.7649 17.0967 11.8508 17.3885 11.9658C17.7106 12.0928 18.1473 12.34 18.3156 12.8812C18.481 13.4129 18.2723 13.8633 18.0901 14.1527C17.9215 14.4206 17.6652 14.7202 17.4028 15.0269C17.3909 15.0407 17.379 15.0546 17.3672 15.0685L17.2153 15.2461C17.1751 15.2931 17.1448 15.3286 17.1192 15.3593C17.1227 15.4017 17.1275 15.4511 17.1339 15.5171L17.1568 15.754C17.1586 15.7721 17.1603 15.7901 17.1621 15.8081C17.202 16.2187 17.2405 16.6155 17.2264 16.9329C17.2115 17.2657 17.1317 17.7695 16.68 18.1124C16.214 18.4661 15.6994 18.389 15.373 18.2955C15.0723 18.2093 14.717 18.0456 14.3592 17.8807C14.3421 17.8729 14.3249 17.865 14.3078 17.8571L14.0992 17.761C14.0602 17.7431 14.0282 17.7283 14.0002 17.7157C13.9723 17.7283 13.9402 17.7431 13.9012 17.761L13.6926 17.8571C13.6755 17.865 13.6584 17.8729 13.6412 17.8807C13.2834 18.0456 12.9281 18.2093 12.6274 18.2955C12.301 18.389 11.7864 18.4661 11.3204 18.1124C10.8688 17.7695 10.7889 17.2657 10.7741 16.9329C10.7599 16.6155 10.7984 16.2187 10.8383 15.8081C10.8401 15.7901 10.8418 15.7721 10.8436 15.754L10.8665 15.5171C10.8729 15.4511 10.8777 15.4017 10.8812 15.3593C10.8556 15.3286 10.8253 15.2931 10.7851 15.2461L10.6332 15.0685C10.6214 15.0546 10.6095 15.0407 10.5976 15.0269C10.3352 14.7202 10.0789 14.4206 9.91029 14.1527C9.72808 13.8633 9.51943 13.4129 9.68477 12.8812C9.85308 12.34 10.2898 12.0928 10.6119 11.9658C10.9037 11.8508 11.2838 11.7649 11.6662 11.6785C11.6845 11.6744 11.7027 11.6703 11.7209 11.6661L11.9437 11.6157C11.99 11.6053 12.0271 11.5968 12.059 11.5894C12.0773 11.5573 12.0982 11.5197 12.1248 11.472L12.2395 11.2662C12.2486 11.2501 12.2576 11.2339 12.2666 11.2177C12.4645 10.8625 12.6576 10.5159 12.8493 10.2656Z" fill="white"/>
</g>
</svg>
